<svg xmlns="http://www.w3.org/2000/svg" viewBox="0 0 32 32" id="graduation-cup"><path d="M16,11c-4.47,0-9,1.37-9,4v4.31C9.1,17.74,12.56,17,16,17s6.9.74,9,2.31V15C25,12.37,20.47,11,16,11Z"></path><ellipse cx="16" cy="23" rx="9" ry="4"></ellipse><path d="M31,12.72a1.11,1.11,0,0,0,0-.17l0,0-.1-.17a1,1,0,0,0-.1-.15.7.7,0,0,0-.17-.13.54.54,0,0,0-.12-.09l-14-6.88a1,1,0,0,0-.88,0L1.56,12a1,1,0,0,0-.51.57,1.08,1.08,0,0,0,.05.77L5,21.23V15c0-4.14,5.52-6,11-6s11,1.86,11,6v6.23l2-4.06V26a1,1,0,0,0,2,0V12.88A.9.9,0,0,0,31,12.72Z"></path></svg>